<svg width="24" height="26" viewBox="0 0 24 26" fill="none" xmlns="http://www.w3.org/2000/svg">
<g id="Group 48100483">
<path id="Vector" d="M0.0446194 7.42931C0.0803377 6.81895 0.33207 6.24565 0.749139 5.82481C1.34328 5.22019 1.96608 4.65454 2.61048 4.11587C3.36807 3.48226 4.32058 3.59819 4.89171 4.42168C5.8508 5.80282 6.80002 7.19163 7.73938 8.5881C8.14941 9.19372 8.16585 9.83232 7.80889 10.4749C7.41311 11.1885 7.01341 11.8994 6.6098 12.6076C6.53794 12.734 6.52432 12.82 6.61356 12.9534C8.06205 15.1175 9.79469 16.9754 11.851 18.489C11.9632 18.5719 12.0388 18.5799 12.1558 18.5029C12.7974 18.0787 13.4455 17.666 14.0885 17.2442C14.7461 16.8135 15.3792 16.8445 16.002 17.3272C17.2734 18.3161 18.5495 19.2979 19.82 20.2878C20.6138 20.9065 20.7349 21.9278 20.1225 22.7518C19.6143 23.4359 19.0812 24.0985 18.5162 24.7301C18.1404 25.1513 17.6614 25.3827 17.125 25.4796C17.0832 25.4871 17.0282 25.4606 17.0104 25.5296H15.979C15.9734 25.514 15.9633 25.5007 15.9501 25.4917C15.9369 25.4827 15.9213 25.4784 15.9057 25.4796C15.5539 25.4576 15.2162 25.3592 14.8823 25.2503C13.7522 24.8825 12.7053 24.3133 11.695 23.6777C7.54587 21.0713 4.18437 17.6055 1.73406 13.1742C1.05161 11.939 0.474376 10.6463 0.16157 9.23919C0.10239 8.97086 0.0535435 8.70003 0 8.43019V8.33026C0.0958146 8.03444 0.0258322 7.72963 0.0446194 7.42931Z" fill="#EF9309"/>
<path id="Vector_2" d="M13.2708 0.0057863C15.3144 0.078741 17.1588 0.651885 18.8412 1.79717C20.504 2.91916 21.8426 4.50889 22.7085 6.39032C23.2494 7.5418 23.5928 8.78672 23.7226 10.0665C23.777 10.6087 23.8503 11.1489 23.7695 11.698C23.6638 12.4361 23.0054 13.0237 22.2595 13.0227C21.5137 13.0217 20.8552 12.4321 20.7626 11.688C20.6889 11.0979 20.6978 10.5013 20.5912 9.91214C20.4239 8.93967 20.0865 8.00928 19.5964 7.16934C18.3936 5.1301 16.6727 3.88488 14.4553 3.41117C13.934 3.30024 13.4023 3.31123 12.8767 3.25377C12.23 3.18281 11.6377 2.51373 11.5776 1.82815C11.4865 0.782804 12.2633 -0.079161 13.2708 0.0057863Z" fill="#EF9309" fill-opacity="0.3"/>
<path id="Vector_3" d="M18.2309 12.0841C18.2915 12.8746 17.7955 13.4832 17.2272 13.6976C16.2343 14.0759 15.201 13.3258 15.1723 12.224C15.131 10.6135 14.1747 9.44223 12.683 9.20138C12.3223 9.14341 11.9546 9.1629 11.6197 8.96702C11.0283 8.62074 10.7334 7.92467 10.8682 7.16814C10.9823 6.53703 11.5257 6.00536 12.1575 5.9424C13.0278 5.85545 13.861 6.05083 14.6547 6.41361C16.06 7.05671 17.083 8.12904 17.717 9.61162C18.0402 10.3657 18.2112 11.1602 18.2309 12.0841Z" fill="#EF9309" fill-opacity="0.3"/>
</g>
</svg>
